<?xml version="1.0" encoding="iso-8859-1"?>
<!-- Uploaded to: SVG Repo, www.svgrepo.com, Generator: SVG Repo Mixer Tools -->
<svg fill="#000000" height="800px" width="800px" version="1.1" id="Layer_1" xmlns="http://www.w3.org/2000/svg" xmlns:xlink="http://www.w3.org/1999/xlink" 
	 viewBox="0 0 512.001 512.001" xml:space="preserve">
<g>
	<g>
		<path d="M387.627,173.603c-5.366-2.941-12.106-0.973-15.048,4.395l-33.426,61.011h-38.099c2.121-3.696,3.105-8.08,2.499-12.63
			c-1.464-10.996-11.57-18.718-22.564-17.258l-52.007,6.931c-10.963,31.87-11.385,36.037-18.882,43.048l57.939-7.721
			c0.637,5.516,5.319,9.801,11.004,9.801h66.676c4.048,0,7.776-2.208,9.723-5.759l36.582-66.77
			C394.965,183.282,392.997,176.545,387.627,173.603z"/>
	</g>
</g>
<g>
	<g>
		<path d="M283.509,140.474l-9.954-40.173c-0.594-2.4-3.022-3.863-5.422-3.269l-34.708,8.6c-2.304,0.571-3.88,2.953-3.269,5.422
			l0.643,2.592c-4.82,1.194-9.033,4.281-11.574,9.07c-10.947-4.646-23.126,1.089-26.856,11.929l-20.937,60.862l-49.037-22.501
			l32.803,5.359l3.941-11.457c0,0-11.272-1.586-59.787-5.65c-17.405-1.235-32.204,12.636-32.071,30.104l1.107,145.555H54.662
			L33.126,166.858c-1.153-9.11-9.464-15.554-18.586-14.408c-9.111,1.154-15.56,9.475-14.406,18.586L23.51,355.634
			c1.052,8.31,8.12,14.54,16.496,14.54h61.482v73.783H84.576c-2.94,0-5.759,1.168-7.839,3.247l-20.133,20.134
			c-4.329,4.329-4.329,11.348,0,15.677c4.33,4.329,11.347,4.329,15.678,0l16.886-16.886h45.372l16.886,16.887
			c4.33,4.329,11.346,4.33,15.678,0c4.329-4.329,4.329-11.348,0-15.677l-20.134-20.134c-2.08-2.078-4.899-3.247-7.838-3.247H123.66
			v-73.785h49.472c8.28,0,15.116-6.06,16.383-13.983l3.338,0.835l13.822,108.183c2.592,20.275,27.713,28.257,41.556,13.335
			l-0.099-69.271l-9.527-74.559c-1.25-9.784-8.336-17.82-17.886-20.285l-50.19-13.073l0.154-2.167l2.441-34.391
			c0,0-24.723-19.655-67.483-55.275l69.195,31.751c10.799,4.953,23.513-0.504,27.373-11.724l27.901-81.104
			c3.009,0.87,6.176,0.98,9.36,0.191l0.642,2.592c0.594,2.4,3.022,3.863,5.422,3.269c12.147-3.01,22.063-5.466,34.708-8.6
			C282.641,145.302,284.105,142.874,283.509,140.474z M229.468,132.491c-0.964-4.042,2.587-7.008,4.263-7.008l2.805,11.317
			C233.362,137.59,230.202,135.618,229.468,132.491z"/>
	</g>
</g>
<g>
	<g>
		<circle cx="135.197" cy="96.841" r="44.338"/>
	</g>
</g>
<g>
	<g>
		<path d="M495.372,273.261H270.34c-9.183,0-16.628,7.445-16.628,16.628s7.445,16.628,16.628,16.628h2.217v50.059
			c4.136-1.563,8.614-2.425,13.291-2.425h8.879v-47.634h177.366v168.658c0,6.122,4.964,11.085,11.085,11.085
			s11.085-4.963,11.085-11.085V306.517h1.109c9.183,0,16.628-7.445,16.628-16.628C512.001,280.706,504.556,273.261,495.372,273.261z
			"/>
	</g>
</g>
<g>
	<g>
		<path d="M304.167,26.892c-0.307-0.762-1.082-1.228-1.899-1.144c-0.817,0.084-1.481,0.698-1.627,1.507
			c-0.633,3.518-1.871,7.81-5.066,11.967c-5.761,5.952-7.527,6.541-15.545,9.878c-5.867,2.142-15.313,4.369-22.066,12.475
			c-4.778,5.431-5.962,11.431-5.814,15.803c0.028,0.814,0.588,1.514,1.376,1.72c0.789,0.206,1.62-0.13,2.043-0.826
			c2.679-4.402,6.5-7.965,9.148-9.356c8.182-4.776,11.725-4.518,19.426-7.169c9.686-3.862,16.165-8.234,20.294-17.854
			C306.656,38.804,306.32,32.226,304.167,26.892z"/>
	</g>
</g>
<g>
	<g>
		<path d="M404.844,370.704h-22.779v-17.147c0-1.745-0.263-3.428-0.728-5.024c-2.18-7.463-9.073-12.935-17.231-12.935h-36.763
			c-8.158,0-15.049,5.473-17.23,12.935c-0.467,1.596-0.728,3.279-0.728,5.024v17.147h-23.535c-8.587,0-15.547,6.96-15.547,15.547
			v84.461c0,8.587,6.961,15.547,15.547,15.547h118.996c8.587,0,15.547-6.96,15.547-15.547v-84.461
			C420.391,377.665,413.431,370.704,404.844,370.704z M363.756,370.704h-36.065v-16.798h36.065V370.704z"/>
	</g>
</g>
</svg>